<?xml version="1.0" encoding="utf-8"?>
<!-- Generator: Adobe Illustrator 18.1.1, SVG Export Plug-In . SVG Version: 6.00 Build 0)  -->
<svg version="1.1" id="Layer_1" xmlns="http://www.w3.org/2000/svg" xmlns:xlink="http://www.w3.org/1999/xlink" x="0px" y="0px"
	 viewBox="-263 355 84 83" enable-background="new -263 355 84 83" xml:space="preserve">
<g id="Group_283" transform="translate(0.054)">
	<g>
		<defs>
			<rect id="SVGID_1_" x="-263.1" y="355" width="84" height="83"/>
		</defs>
		<clipPath id="SVGID_2_">
			<use xlink:href="#SVGID_1_"  overflow="visible"/>
		</clipPath>
		<g id="Group_21" transform="translate(0 0)" clip-path="url(#SVGID_2_)">
			<path id="Path_13" fill="#FDD44C" d="M-262.3,396.5c0-32.2,9-41.2,41.2-41.2s41.2,9,41.2,41.2s-9,41.2-41.2,41.2
				S-262.3,428.7-262.3,396.5"/>
		</g>
	</g>
</g>
<g>
	<defs>
		<rect id="SVGID_3_" x="-235" y="373" width="29.5" height="49.1"/>
	</defs>
	<clipPath id="SVGID_4_">
		<use xlink:href="#SVGID_3_"  overflow="visible"/>
	</clipPath>
</g>
<g>
	<defs>
		<rect id="SVGID_5_" x="-242.3" y="371" width="48.8" height="51.7"/>
	</defs>
	<clipPath id="SVGID_6_">
		<use xlink:href="#SVGID_5_"  overflow="visible"/>
	</clipPath>
	<g id="Group_11" clip-path="url(#SVGID_6_)">
		<path id="Path_6" d="M-199.6,401.5l-1.1,2.2c-0.6,1.2-1.5,2.1-2.7,2.7l-2.3,1.1l2.2,1.1c1.2,0.6,2.1,1.5,2.7,2.7l1.1,2.2l1.1-2.2
			c0.6-1.2,1.5-2.1,2.7-2.7l2.2-1.1l-2.2-1.1l0,0c-1.2-0.6-2.1-1.5-2.7-2.7L-199.6,401.5z"/>
		<path id="Path_7" d="M-199.6,386.2l1.1-2.2c0.6-1.2,1.5-2.1,2.7-2.7l2.2-1.1l-2.2-1.1l0,0c-1.2-0.6-2.1-1.5-2.7-2.7l-1.1-2.2
			l-1.1,2.2c-0.6,1.2-1.5,2.1-2.7,2.7l-2.3,1.1l2.2,1.1c1.2,0.6,2.1,1.5,2.7,2.7L-199.6,386.2z"/>
		<path id="Path_8" d="M-233.1,389.3l2.1-4.3c0.6-1.2,1.5-2.1,2.7-2.7l4.3-2.1l-4.3-2.1c-1.2-0.6-2.1-1.5-2.7-2.7l-2.1-4.3l-2.1,4.3
			c-0.6,1.2-1.5,2.1-2.7,2.7l-4.3,2.1l4.3,2.1c1.2,0.6,2.1,1.5,2.7,2.7L-233.1,389.3z"/>
		<path id="Path_9" d="M-208.4,388.9c-2.4-2.4-6.2-2.4-8.6,0l-23.3,23.3c-2.3,2.5-2.2,6.3,0.3,8.6c2.3,2.2,6,2.2,8.3,0l23.3-23.3
			l0,0C-206,395.2-206,391.3-208.4,388.9L-208.4,388.9z M-233.9,418.7L-233.9,418.7c-1.2,1.2-3.1,1.2-4.3,0c-1.2-1.2-1.2-3.1,0-4.3
			l19-19l4.3,4.3L-233.9,418.7z M-210.5,395.4l-2.2,2.2l-4.3-4.3l2.2-2.2c1.2-1.2,3.1-1.2,4.3,0
			C-209.3,392.3-209.3,394.2-210.5,395.4L-210.5,395.4L-210.5,395.4z"/>
	</g>
</g>
</svg>
