<?xml version="1.0" encoding="utf-8"?>
<!-- Generator: Adobe Illustrator 18.1.1, SVG Export Plug-In . SVG Version: 6.00 Build 0)  -->
<svg version="1.1" id="Layer_1" xmlns="http://www.w3.org/2000/svg" xmlns:xlink="http://www.w3.org/1999/xlink" x="0px" y="0px"
	 viewBox="-297 385.9 16.2 22.1" enable-background="new -297 385.9 16.2 22.1" xml:space="preserve">
<g>
	<defs>
		<rect id="SVGID_1_" x="-297" y="385.9" width="16.2" height="22.1"/>
	</defs>
	<clipPath id="SVGID_2_">
		<use xlink:href="#SVGID_1_"  overflow="visible"/>
	</clipPath>
	<g id="Group_902" clip-path="url(#SVGID_2_)">
		<path id="Path_850" fill="#0862D9" d="M-281.8,389.8l-3.6-3.2c-0.5-0.5-1.2-0.7-1.9-0.7h-6.9c-1.6,0-2.9,1.3-2.9,2.9v16.4
			c0,1.6,1.3,2.9,2.9,2.9h10.5c1.6,0,2.9-1.3,2.9-2.9V392C-280.8,391.2-281.1,390.4-281.8,389.8L-281.8,389.8z M-284.9,405.2h-7.9
			c-0.8,0-1.4-0.6-1.4-1.4V398c0-0.8,0.6-1.4,1.4-1.4h7.9c0.8,0,1.4,0.6,1.4,1.4l0,5.8C-283.5,404.6-284.2,405.2-284.9,405.2
			L-284.9,405.2z"/>
	</g>
</g>
<rect x="-292.6" y="397.4" fill="#0862D9" width="1.9" height="7.1"/>
<rect x="-288.9" y="397.4" fill="#0862D9" width="1.9" height="7.1"/>
</svg>
