<svg xmlns="http://www.w3.org/2000/svg" xmlns:xlink="http://www.w3.org/1999/xlink" width="24.739" height="20.543" viewBox="0 0 24.739 20.543">
  <defs>
    <clipPath id="clip-path">
      <rect id="Rectangle_1274" data-name="Rectangle 1274" width="24.739" height="20.543" fill="#fff"/>
    </clipPath>
  </defs>
  <g id="Group_2621" data-name="Group 2621" clip-path="url(#clip-path)">
    <path id="Path_2584" data-name="Path 2584" d="M15.774,10.821H.787a.787.787,0,1,1,0-1.573h15.3L12.5,5.666A.787.787,0,0,1,13.61,4.555l4.762,4.762a.786.786,0,0,1,0,1.106l-4.762,4.82a.786.786,0,0,1-1.116-1.106ZM21.653,3A10.227,10.227,0,0,0,7.19,3,.787.787,0,0,0,8.3,4.107a8.653,8.653,0,1,1,0,12.237.787.787,0,0,0-1.111,1.113A10.227,10.227,0,1,0,21.657,3Z" transform="translate(0 -0.001)" fill="#fff"/>
  </g>
</svg>
