<svg id="Group_858" data-name="Group 858" xmlns="http://www.w3.org/2000/svg" xmlns:xlink="http://www.w3.org/1999/xlink" width="27.878" height="26.24" viewBox="0 0 27.878 26.24">
  <defs>
    <clipPath id="clip-path">
      <rect id="Rectangle_369" data-name="Rectangle 369" width="27.878" height="26.24" fill="#0667e9"/>
    </clipPath>
  </defs>
  <g id="Group_857" data-name="Group 857" clip-path="url(#clip-path)">
    <path id="Path_830" data-name="Path 830" d="M27.267,5.4a2.825,2.825,0,0,0-2.2-1.086H7.191L6.633,2.143A2.822,2.822,0,0,0,3.9,0H.91A.914.914,0,0,0,0,.91a.914.914,0,0,0,.91.91H3.9a.97.97,0,0,1,.939.734L8.424,16.818a2.822,2.822,0,0,0,2.73,2.143H22.865a2.8,2.8,0,0,0,2.73-2.143l2.2-9.04A2.691,2.691,0,0,0,27.267,5.4ZM26.005,7.367l-2.2,9.04a.97.97,0,0,1-.939.734H11.153a.97.97,0,0,1-.939-.734L7.661,6.164H25.066a.973.973,0,0,1,.763.382.921.921,0,0,1,.176.822Z" fill="#0667e9"/>
    <path id="Path_831" data-name="Path 831" d="M169.373,384.159a3.052,3.052,0,1,0,3.053,3.052A3.069,3.069,0,0,0,169.373,384.159Zm0,4.256a1.2,1.2,0,1,1,1.2-1.2,1.229,1.229,0,0,1-1.2,1.2" transform="translate(-157.604 -364.024)" fill="#0667e9"/>
    <path id="Path_832" data-name="Path 832" d="M362.013,384.159a3.052,3.052,0,1,0,3.052,3.052A3.069,3.069,0,0,0,362.013,384.159Zm0,4.256a1.2,1.2,0,1,1,1.2-1.2,1.229,1.229,0,0,1-1.2,1.2" transform="translate(-340.147 -364.024)" fill="#0667e9"/>
  </g>
</svg>
