<svg id="Group_884" data-name="Group 884" xmlns="http://www.w3.org/2000/svg" xmlns:xlink="http://www.w3.org/1999/xlink" width="16.004" height="16.004" viewBox="0 0 16.004 16.004">
  <defs>
    <clipPath id="clip-path">
      <rect id="Rectangle_71" data-name="Rectangle 71" width="16.004" height="16.004" fill="#45c298"/>
    </clipPath>
  </defs>
  <g id="Group_294" data-name="Group 294" clip-path="url(#clip-path)">
    <path id="Path_225" data-name="Path 225" d="M118.165,141.036l-3.718,3.522-1.544-1.631a.661.661,0,1,0-.957.913l2,2.087a.63.63,0,0,0,.457.2.609.609,0,0,0,.457-.174l4.2-3.979a.652.652,0,0,0,.022-.913.631.631,0,0,0-.913-.022Z" transform="translate(-107.511 -135.492)" fill="#45c298"/>
    <path id="Path_226" data-name="Path 226" d="M8,0A8,8,0,1,0,13.66,2.344,8,8,0,0,0,8,0ZM8,14.7a6.7,6.7,0,1,1,4.735-1.962A6.7,6.7,0,0,1,8,14.7Z" fill="#45c298"/>
  </g>
</svg>
