<svg id="Group_3" data-name="Group 3" xmlns="http://www.w3.org/2000/svg" xmlns:xlink="http://www.w3.org/1999/xlink" width="313.394" height="16.506" viewBox="0 0 313.394 16.506">
  <defs>
    <clipPath id="clip-path">
      <rect id="Rectangle_3" data-name="Rectangle 3" width="313.394" height="16.506"/>
    </clipPath>
  </defs>
  <g id="Group_3-2" data-name="Group 3" transform="translate(0 0)" clip-path="url(#clip-path)">
    <path id="Path_1" data-name="Path 1" d="M0,4.63S243.79.548,296.733,7.6c0,0,22.471,1.856-5.233,1.856s-170.53-3-170.53-3S35.4,8.341,24.933,12.8v3.711A788.1,788.1,0,0,1,125.28,9.98C181.918,9.826,269.03,12.8,269.03,12.8s30.781.371,38.477-.371,8-4.825,0-6.681a400.51,400.51,0,0,0-60.891-4.626L120.7,0,0,1.3Z" transform="translate(0 0)"/>
  </g>
</svg>
