<?xml version="1.0" encoding="utf-8"?>
<!-- Generator: Adobe Illustrator 18.1.1, SVG Export Plug-In . SVG Version: 6.00 Build 0)  -->
<svg version="1.1" id="Layer_1" xmlns="http://www.w3.org/2000/svg" xmlns:xlink="http://www.w3.org/1999/xlink" x="0px" y="0px"
	 viewBox="-263 355 84 83" enable-background="new -263 355 84 83" xml:space="preserve">
<g id="Group_22" transform="translate(0.254 0.198)">
	<g>
		<defs>
			<rect id="SVGID_1_" x="-263.3" y="354.8" width="84" height="83"/>
		</defs>
		<clipPath id="SVGID_2_">
			<use xlink:href="#SVGID_1_"  overflow="visible"/>
		</clipPath>
		<g id="Group_21" transform="translate(0 0)" clip-path="url(#SVGID_2_)">
			<path id="Path_13" fill="#FDD44C" d="M-262.6,396.3c0-32.3,9-41.3,41.3-41.3s41.3,9,41.3,41.3c0,32.3-9,41.3-41.3,41.3
				C-253.5,437.5-262.6,428.5-262.6,396.3"/>
		</g>
	</g>
</g>
<g>
	<defs>
		<rect id="SVGID_3_" x="-240.3" y="383.5" width="40.9" height="28"/>
	</defs>
	<clipPath id="SVGID_4_">
		<use xlink:href="#SVGID_3_"  overflow="visible"/>
	</clipPath>
	<g id="Group_13" clip-path="url(#SVGID_4_)">
		<path id="Path_10" d="M-200,384.1c-0.7-0.7-1.9-0.7-2.7,0l-22.8,22.8l-11.4-11.4c-0.6-0.8-1.8-1-2.7-0.4s-1,1.8-0.4,2.7
			c0.1,0.1,0.2,0.3,0.4,0.4l12.7,12.8c0.7,0.7,1.9,0.7,2.7,0l24.1-24.1C-199.2,386.1-199.2,384.9-200,384.1
			C-200,384.1-200,384.1-200,384.1L-200,384.1z"/>
	</g>
</g>
</svg>
