<svg id="Group_893" data-name="Group 893" xmlns="http://www.w3.org/2000/svg" xmlns:xlink="http://www.w3.org/1999/xlink" width="22.904" height="34.238" viewBox="0 0 22.904 34.238">
  <defs>
    <clipPath id="clip-path">
      <rect id="Rectangle_397" data-name="Rectangle 397" width="22.904" height="34.238" fill="none"/>
    </clipPath>
  </defs>
  <g id="Mask_Group_892" data-name="Mask Group 892" clip-path="url(#clip-path)">
    <path id="Path_846" data-name="Path 846" d="M18.069,0H4.835A4.84,4.84,0,0,0,0,4.835V29.4a4.84,4.84,0,0,0,4.835,4.835H18.069A4.84,4.84,0,0,0,22.9,29.4V4.835A4.84,4.84,0,0,0,18.069,0m2.417,29.4h0a2.42,2.42,0,0,1-2.417,2.417H4.835A2.42,2.42,0,0,1,2.417,29.4V4.835A2.42,2.42,0,0,1,4.835,2.418H7.289c0,.035-.02.064-.02.1h0A1.813,1.813,0,0,0,9.082,4.33h4.74a1.813,1.813,0,0,0,1.813-1.813c0-.035-.018-.064-.02-.1h2.454a2.42,2.42,0,0,1,2.417,2.417Z"/>
  </g>
</svg>
