<?xml version="1.0" encoding="utf-8"?>
<!-- Generator: Adobe Illustrator 18.1.1, SVG Export Plug-In . SVG Version: 6.00 Build 0)  -->
<svg version="1.1" id="Layer_1" xmlns="http://www.w3.org/2000/svg" xmlns:xlink="http://www.w3.org/1999/xlink" x="0px" y="0px"
	 viewBox="-263 355 84 83" enable-background="new -263 355 84 83" xml:space="preserve">
<g id="Group_283" transform="translate(0.054)">
	<g>
		<defs>
			<rect id="SVGID_1_" x="-263.1" y="355" width="84" height="83"/>
		</defs>
		<clipPath id="SVGID_2_">
			<use xlink:href="#SVGID_1_"  overflow="visible"/>
		</clipPath>
		<g id="Group_21" transform="translate(0 0)" clip-path="url(#SVGID_2_)">
			<path id="Path_13" fill="#FDD44C" d="M-262.3,396.5c0-32.2,9-41.2,41.2-41.2s41.2,9,41.2,41.2s-9,41.2-41.2,41.2
				S-262.3,428.7-262.3,396.5"/>
		</g>
	</g>
</g>
<g>
	<defs>
		<rect id="SVGID_3_" x="-235" y="373" width="29.5" height="49.1"/>
	</defs>
	<clipPath id="SVGID_4_">
		<use xlink:href="#SVGID_3_"  overflow="visible"/>
	</clipPath>
	<g id="Group_9" clip-path="url(#SVGID_4_)">
		<path id="Path_5" d="M-208.9,373h-22.7c-1.9,0.1-3.5,1.7-3.4,3.6v41.8c-0.1,1.9,1.5,3.6,3.4,3.6h22.7c1.9-0.1,3.5-1.7,3.4-3.6
			v-41.8C-205.4,374.7-207,373.1-208.9,373z M-225.1,375.2h9.8c0.2,0,0.3,0.2,0.3,0.5c0,0.3-0.2,0.5-0.3,0.5h-9.8
			c-0.2,0-0.3-0.2-0.3-0.5C-225.5,375.5-225.3,375.2-225.1,375.2 M-216.3,419.7h-7.9c-0.7,0-1.3-0.6-1.3-1.3c0-0.7,0.6-1.3,1.3-1.3
			h7.9c0.7,0,1.3,0.6,1.3,1.3C-215,419.2-215.6,419.7-216.3,419.7 M-208.4,414.8h-23.8v-36.3h23.8L-208.4,414.8z"/>
	</g>
</g>
</svg>
