<svg id="Group_3308" data-name="Group 3308" xmlns="http://www.w3.org/2000/svg" xmlns:xlink="http://www.w3.org/1999/xlink" width="257.158" height="52.695" viewBox="0 0 257.158 52.695">
  <defs>
    <clipPath id="clip-path">
      <rect id="Rectangle_1302" data-name="Rectangle 1302" width="232.158" height="52.695" fill="none"/>
    </clipPath>
  </defs>
  <path id="Path_2664" data-name="Path 2664" d="M35.249,35.068V74.814H253.307l26.085-19.873L253.307,35.068Z" transform="translate(-22.234 -22.119)" fill="#c4eddd"/>
  <g id="Group_2752" data-name="Group 2752">
    <g id="Group_2751" data-name="Group 2751" clip-path="url(#clip-path)">
      <path id="Path_2665" data-name="Path 2665" d="M16.63,13.473V0A13.465,13.465,0,0,0,4.985,6.775a13.465,13.465,0,0,0,11.645,6.7" transform="translate(-2.615 0.456)" fill="#a9c7b2"/>
      <path id="Path_2666" data-name="Path 2666" d="M13.015,0h-.042V12.93A12.921,12.921,0,0,1,1.8,6.5,12.869,12.869,0,0,0,.085,12.93L0,39.765a12.93,12.93,0,0,0,12.93,12.93V52.61l.085.085V25.86h0Z" transform="translate(1)" fill="#c4eddd"/>
    </g>
  </g>
</svg>
