<?xml version="1.0" encoding="utf-8"?>
<!-- Generator: Adobe Illustrator 23.0.5, SVG Export Plug-In . SVG Version: 6.00 Build 0)  -->
<svg version="1.1" id="Layer_1" xmlns="http://www.w3.org/2000/svg" xmlns:xlink="http://www.w3.org/1999/xlink" x="0px" y="0px"
	 viewBox="0 0 84 83" style="enable-background:new 0 0 84 83;" xml:space="preserve">
<style type="text/css">
	.st0{clip-path:url(#SVGID_2_);}
	.st1{fill:#FDD44C;}
	.st2{clip-path:url(#SVGID_4_);}
	.st3{fill-rule:evenodd;clip-rule:evenodd;}
	.st4{clip-path:url(#SVGID_6_);}
</style>
<g id="Group_22" transform="translate(0.254 0.198)">
	<g>
		<defs>
			<rect id="SVGID_1_" x="-0.3" y="-0.2" width="84" height="83"/>
		</defs>
		<clipPath id="SVGID_2_">
			<use xlink:href="#SVGID_1_"  style="overflow:visible;"/>
		</clipPath>
		<g id="Group_21" transform="translate(0 0)" class="st0">
			<path id="Path_13" class="st1" d="M0.4,41.3C0.4,9,9.5,0,41.7,0S83,9,83,41.3s-9,41.3-41.3,41.3S0.4,73.5,0.4,41.3"/>
		</g>
	</g>
</g>
<g id="Group_906" transform="translate(-963.221 -2206.384)">
	<g id="Group_286" transform="translate(963.221 2206.384)">
		<g>
			<defs>
				<rect id="SVGID_3_" x="19.4" y="17.5" width="37.3" height="43.6"/>
			</defs>
			<clipPath id="SVGID_4_">
				<use xlink:href="#SVGID_3_"  style="overflow:visible;"/>
			</clipPath>
			<g id="Group_7" transform="translate(0 0)" class="st2">
				<path id="Path_3" class="st3" d="M29.9,39.3c-2.3,0-4.1,1.8-4.1,4.1v8.2c0,2.3,1.8,4.1,4.1,4.1h16.4c2.3,0,4.1-1.8,4.1-4.1v-8.2
					c0-2.3-1.8-4.1-4.1-4.1c0,0,0,0,0,0H29.9z M28.6,43.4c0-0.8,0.6-1.4,1.4-1.4h1.4v2.7c0,0.8,0.6,1.4,1.4,1.4s1.4-0.6,1.4-1.4V42
					h2.7v2.7c0,0.8,0.6,1.4,1.4,1.4s1.4-0.6,1.4-1.4V42h2.7v2.7c0,0.8,0.6,1.4,1.4,1.4s1.4-0.6,1.4-1.4V42h1.4
					c0.8,0,1.4,0.6,1.4,1.4v8.2c0,0.8-0.6,1.4-1.4,1.4H45v-2.7c0-0.8-0.6-1.4-1.4-1.4s-1.4,0.6-1.4,1.4V53h-2.7v-2.7
					c0-0.8-0.6-1.4-1.4-1.4s-1.4,0.6-1.4,1.4V53H34v-2.7c0-0.8-0.6-1.4-1.4-1.4s-1.4,0.6-1.4,1.4V53h-1.4c-0.8,0-1.4-0.6-1.4-1.4
					V43.4z"/>
				<path id="Path_4" class="st3" d="M27.2,17.3c-3.8,0-6.9,3.1-6.9,6.9c0,0,0,0,0,0v30.1c0,3.8,3.1,6.9,6.9,6.9c0,0,0,0,0,0h21.9
					c3.8,0,6.9-3.1,6.9-6.9V33.1c0-1.7-0.6-3.3-1.7-4.6l-7.9-8.9c-1.3-1.5-3.2-2.3-5.1-2.3H27.2z M23.1,24.2c0-2.3,1.8-4.1,4.1-4.1
					l0,0h14c1.2,0,2.3,0.5,3.1,1.4l7.9,8.9c0.7,0.8,1,1.7,1,2.7v21.2c0,2.3-1.8,4.1-4.1,4.1H27.2c-2.3,0-4.1-1.8-4.1-4.1l0,0V24.2z"
					/>
			</g>
		</g>
	</g>
	<circle id="Ellipse_49" class="st1" cx="1015.7" cy="2263.9" r="11.3"/>
	<g id="Group_905" transform="translate(987 2237)">
		<g>
			<defs>
				<rect id="SVGID_5_" x="19.4" y="17.5" width="20" height="20"/>
			</defs>
			<clipPath id="SVGID_6_">
				<use xlink:href="#SVGID_5_"  style="overflow:visible;"/>
			</clipPath>
			<g id="Group_905-2" class="st4">
				<path id="Path_852" d="M29.4,17.5c-5.5,0-10,4.5-10,10s4.5,10,10,10s10-4.5,10-10S34.9,17.5,29.4,17.5 M34.6,25.1L28.7,31
					c-0.2,0.2-0.5,0.3-0.7,0.3c-0.3,0-0.5-0.1-0.7-0.3l-3-3c-0.4-0.4-0.4-1.1,0-1.5c0.4-0.4,1.1-0.4,1.5,0c0,0,0,0,0,0l2.2,2.2
					l5.1-5.1c0.4-0.4,1.1-0.4,1.5,0c0,0,0,0,0,0C35,24,35,24.7,34.6,25.1L34.6,25.1z"/>
			</g>
		</g>
	</g>
</g>
</svg>
